<?xml version="1.0" standalone="no"?>
<!DOCTYPE svg PUBLIC "-//W3C//DTD SVG 20010904//EN"
 "http://www.w3.org/TR/2001/REC-SVG-20010904/DTD/svg10.dtd">
<svg version="1.0" xmlns="http://www.w3.org/2000/svg"
 width="1024.000000pt" height="1024.000000pt" viewBox="0 0 1024.000000 1024.000000"
 preserveAspectRatio="xMidYMid meet">

<g transform="translate(0.000000,1024.000000) scale(0.100000,-0.100000)"
fill="#000000" stroke="none">
<path d="M4520 9645 l0 -515 155 0 155 0 0 -105 0 -105 -400 0 -400 0 0 -170
0 -170 -290 0 -290 0 0 -125 0 -125 -290 0 -290 0 0 -125 0 -125 -130 0 -130
0 0 -125 0 -125 -130 0 -130 0 0 -125 0 -125 -130 0 -130 0 0 -125 0 -125
-130 0 -130 0 0 -305 0 -305 -130 0 -130 0 0 -2300 0 -2300 130 0 130 0 0
-245 0 -245 410 0 410 0 0 -140 0 -140 -275 0 -275 0 0 -140 0 -140 405 0 405
0 0 -80 0 -80 690 0 690 0 0 80 0 80 805 0 805 0 0 -85 0 -85 670 0 670 0 0
85 0 85 400 0 400 0 0 140 0 140 -270 0 -270 0 0 140 0 140 390 0 390 0 0 245
0 245 130 0 130 0 0 2300 0 2300 -130 0 -130 0 0 305 0 305 -130 0 -130 0 0
125 0 125 -130 0 -130 0 0 125 0 125 -130 0 -130 0 0 125 0 125 -130 0 -130 0
0 130 0 130 -290 0 -290 0 0 125 0 125 -275 0 -275 0 0 165 0 165 -385 0 -385
0 0 105 0 105 140 0 140 0 0 515 0 515 -550 0 -550 0 0 -515z m900 333 c-25
-22 -128 -121 -230 -218 -102 -98 -203 -195 -225 -215 -22 -21 -81 -76 -131
-124 -49 -47 -104 -99 -122 -115 l-32 -30 0 372 0 372 393 0 392 -1 -45 -41z
m440 -1478 l0 -180 -135 0 -135 0 0 -105 0 -105 -655 0 -655 0 0 -95 0 -95
890 0 890 0 0 -95 0 -95 145 0 145 0 0 -110 0 -110 165 0 165 0 0 -85 0 -85
285 0 285 0 0 -110 0 -110 -2330 0 -2330 0 0 -1220 0 -1220 2335 0 2335 0 0
-210 0 -210 -110 0 -110 0 0 -470 0 -470 110 0 110 0 0 -95 0 -95 -960 0 -960
0 0 -105 0 -105 -1195 0 -1195 0 0 115 0 115 -560 0 -560 0 0 1785 0 1785 130
0 130 0 0 305 0 305 130 0 130 0 0 125 0 125 130 0 130 0 0 125 0 125 130 0
130 0 0 125 0 125 290 0 290 0 0 125 0 125 290 0 290 0 0 -110 0 -110 125 0
125 0 0 285 0 285 790 0 790 0 0 -180z m1900 -2640 l0 -940 -120 0 -120 0 0
940 0 940 120 0 120 0 0 -940z m-1190 75 l0 -425 -535 0 -535 0 0 425 0 425
535 0 535 0 0 -425z m-2020 -20 l0 -415 -520 0 -520 0 0 415 0 415 520 0 520
0 0 -415z m-2180 -3110 l0 -115 2565 0 2565 0 0 -175 0 -175 -125 0 -125 0 0
-135 0 -135 125 0 125 0 0 -80 0 -80 -130 0 -130 0 0 -280 0 -280 -2165 0
-2165 0 0 280 0 280 -410 0 -410 0 0 200 0 200 -130 0 -130 0 0 305 0 305 270
0 270 0 0 -115z"/>
<path d="M3450 4275 c0 -12 -19 -15 -115 -15 l-115 0 0 -110 c0 -67 -4 -110
-10 -110 -6 0 -10 -90 -10 -250 l0 -250 125 0 125 0 0 -125 0 -125 250 0 250
0 0 125 0 125 125 0 125 0 0 250 c0 160 -4 250 -10 250 -6 0 -10 43 -10 110
l0 110 -115 0 c-96 0 -115 3 -115 15 0 13 -34 15 -250 15 -216 0 -250 -2 -250
-15z m320 -360 l0 -125 -165 0 -165 0 0 125 0 125 165 0 165 0 0 -125z"/>
<path d="M4770 4275 c0 -12 -19 -15 -115 -15 l-115 0 0 -110 c0 -67 -4 -110
-10 -110 -6 0 -10 -90 -10 -250 l0 -250 125 0 125 0 0 -125 0 -125 250 0 250
0 0 125 0 125 125 0 125 0 0 250 c0 160 -4 250 -10 250 -6 0 -10 43 -10 110
l0 110 -115 0 c-96 0 -115 3 -115 15 0 13 -34 15 -250 15 -216 0 -250 -2 -250
-15z m320 -360 l0 -125 -165 0 -165 0 0 125 0 125 165 0 165 0 0 -125z"/>
<path d="M2610 4135 l0 -125 130 0 130 0 0 125 0 125 -130 0 -130 0 0 -125z"/>
<path d="M6040 3790 l0 -470 405 0 405 0 0 470 0 470 -405 0 -405 0 0 -470z
m580 0 l0 -180 -170 0 -170 0 0 180 0 180 170 0 170 0 0 -180z"/>
<path d="M2090 3665 l0 -125 130 0 130 0 0 125 0 125 -130 0 -130 0 0 -125z"/>
<path d="M2610 3665 l0 -125 130 0 130 0 0 125 0 125 -130 0 -130 0 0 -125z"/>
<path d="M2610 2205 l0 -135 130 0 130 0 0 135 0 135 -130 0 -130 0 0 -135z"/>
<path d="M3170 1965 l0 -375 175 0 175 0 0 375 0 375 -175 0 -175 0 0 -375z"/>
<path d="M3760 1965 l0 -375 175 0 175 0 0 375 0 375 -175 0 -175 0 0 -375z"/>
<path d="M4350 1970 l0 -370 700 0 700 0 0 370 0 370 -700 0 -700 0 0 -370z"/>
<path d="M6620 1965 l0 -375 175 0 175 0 0 375 0 375 -175 0 -175 0 0 -375z"/>
<path d="M6030 1955 l0 -375 175 0 175 0 0 375 0 375 -175 0 -175 0 0 -375z"/>
</g>
</svg>
